<svg width="158" height="19" viewBox="0 0 158 19" fill="none" xmlns="http://www.w3.org/2000/svg">
<path d="M4.656 16.6C4.53867 16.6 4.44267 16.5627 4.368 16.488C4.29333 16.4133 4.256 16.3173 4.256 16.2V15.096C3.43467 14.9893 2.74667 14.7813 2.192 14.472C1.648 14.1627 1.23733 13.7893 0.96 13.352C0.682667 12.904 0.533333 12.4347 0.512 11.944C0.512 11.8587 0.544 11.784 0.608 11.72C0.682667 11.6453 0.768 11.608 0.864 11.608H2.88C3.02933 11.608 3.14133 11.6347 3.216 11.688C3.29067 11.7413 3.36533 11.8107 3.44 11.896C3.52533 12.056 3.64267 12.2107 3.792 12.36C3.952 12.5093 4.15467 12.632 4.4 12.728C4.656 12.8133 4.97067 12.856 5.344 12.856C5.96267 12.856 6.42667 12.76 6.736 12.568C7.056 12.376 7.216 12.1147 7.216 11.784C7.216 11.5493 7.13067 11.3573 6.96 11.208C6.78933 11.048 6.512 10.9093 6.128 10.792C5.75467 10.664 5.25333 10.536 4.624 10.408C3.81333 10.2373 3.12 10.0187 2.544 9.752C1.97867 9.47467 1.54667 9.11733 1.248 8.68C0.949333 8.232 0.8 7.67733 0.8 7.016C0.8 6.16267 1.104 5.43733 1.712 4.84C2.33067 4.24267 3.17867 3.86933 4.256 3.72V2.6C4.256 2.48267 4.29333 2.38667 4.368 2.312C4.44267 2.23733 4.53867 2.2 4.656 2.2H5.984C6.09067 2.2 6.18133 2.23733 6.256 2.312C6.34133 2.38667 6.384 2.48267 6.384 2.6V3.752C7.12 3.88 7.73867 4.10933 8.24 4.44C8.74133 4.77067 9.12 5.144 9.376 5.56C9.64267 5.976 9.78133 6.376 9.792 6.76C9.792 6.84533 9.76 6.92533 9.696 7C9.632 7.064 9.552 7.096 9.456 7.096H7.344C7.22667 7.096 7.12533 7.07467 7.04 7.032C6.95467 6.98933 6.88 6.92 6.816 6.824C6.752 6.58933 6.58133 6.38667 6.304 6.216C6.02667 6.03467 5.66933 5.944 5.232 5.944C4.77333 5.944 4.41067 6.02933 4.144 6.2C3.87733 6.36 3.744 6.61067 3.744 6.952C3.744 7.16533 3.81333 7.352 3.952 7.512C4.10133 7.672 4.34667 7.81067 4.688 7.928C5.02933 8.04533 5.49333 8.168 6.08 8.296C7.05067 8.47733 7.83467 8.70667 8.432 8.984C9.02933 9.25067 9.46667 9.60267 9.744 10.04C10.0213 10.4667 10.16 11.0053 10.16 11.656C10.16 12.2853 10 12.84 9.68 13.32C9.37067 13.8 8.93333 14.1893 8.368 14.488C7.80267 14.7867 7.14133 14.984 6.384 15.08V16.2C6.384 16.3173 6.34133 16.4133 6.256 16.488C6.18133 16.5627 6.09067 16.6 5.984 16.6H4.656Z" fill="#2959CE"/>
<path d="M19.0254 15C18.9187 15 18.828 14.968 18.7534 14.904C18.6894 14.8293 18.6574 14.7387 18.6574 14.632V5.672L16.0014 7.72C15.916 7.784 15.8254 7.81067 15.7294 7.8C15.6334 7.78933 15.5534 7.74133 15.4894 7.656L15.0734 7.128C15.0094 7.032 14.9827 6.936 14.9934 6.84C15.0147 6.744 15.068 6.664 15.1534 6.6L18.6414 3.912C18.716 3.85867 18.7854 3.82667 18.8494 3.816C18.9134 3.80533 18.9827 3.8 19.0574 3.8H19.8734C19.98 3.8 20.0654 3.83733 20.1294 3.912C20.1934 3.976 20.2254 4.06133 20.2254 4.168V14.632C20.2254 14.7387 20.1934 14.8293 20.1294 14.904C20.0654 14.968 19.98 15 19.8734 15H19.0254ZM26.5251 15.16C25.7891 15.16 25.1651 15.048 24.6531 14.824C24.1518 14.5893 23.7411 14.2693 23.4211 13.864C23.1011 13.4587 22.8665 12.9947 22.7171 12.472C22.5785 11.9493 22.4985 11.3947 22.4771 10.808C22.4665 10.52 22.4558 10.216 22.4451 9.896C22.4451 9.576 22.4451 9.256 22.4451 8.936C22.4558 8.60533 22.4665 8.29067 22.4771 7.992C22.4878 7.40533 22.5678 6.85067 22.7171 6.328C22.8771 5.79467 23.1118 5.33067 23.4211 4.936C23.7411 4.53067 24.1571 4.216 24.6691 3.992C25.1811 3.75733 25.7998 3.64 26.5251 3.64C27.2611 3.64 27.8798 3.75733 28.3811 3.992C28.8931 4.216 29.3091 4.53067 29.6291 4.936C29.9491 5.33067 30.1838 5.79467 30.3331 6.328C30.4931 6.85067 30.5785 7.40533 30.5891 7.992C30.5998 8.29067 30.6051 8.60533 30.6051 8.936C30.6158 9.256 30.6158 9.576 30.6051 9.896C30.6051 10.216 30.5998 10.52 30.5891 10.808C30.5785 11.3947 30.4931 11.9493 30.3331 12.472C30.1838 12.9947 29.9491 13.4587 29.6291 13.864C29.3198 14.2693 28.9091 14.5893 28.3971 14.824C27.8958 15.048 27.2718 15.16 26.5251 15.16ZM26.5251 13.8C27.3571 13.8 27.9705 13.528 28.3651 12.984C28.7705 12.4293 28.9785 11.6773 28.9891 10.728C29.0105 10.4187 29.0211 10.12 29.0211 9.832C29.0211 9.53333 29.0211 9.24 29.0211 8.952C29.0211 8.65333 29.0105 8.36 28.9891 8.072C28.9785 7.144 28.7705 6.40267 28.3651 5.848C27.9705 5.28267 27.3571 5 26.5251 5C25.7038 5 25.0905 5.28267 24.6851 5.848C24.2905 6.40267 24.0825 7.144 24.0611 8.072C24.0611 8.36 24.0558 8.65333 24.0451 8.952C24.0451 9.24 24.0451 9.53333 24.0451 9.832C24.0558 10.12 24.0611 10.4187 24.0611 10.728C24.0825 11.6773 24.2958 12.4293 24.7011 12.984C25.1065 13.528 25.7145 13.8 26.5251 13.8ZM36.0254 15C35.9187 15 35.828 14.968 35.7534 14.904C35.6894 14.8293 35.6574 14.7387 35.6574 14.632V5.672L33.0014 7.72C32.916 7.784 32.8254 7.81067 32.7294 7.8C32.6334 7.78933 32.5534 7.74133 32.4894 7.656L32.0734 7.128C32.0094 7.032 31.9827 6.936 31.9934 6.84C32.0147 6.744 32.068 6.664 32.1534 6.6L35.6414 3.912C35.716 3.85867 35.7854 3.82667 35.8494 3.816C35.9134 3.80533 35.9827 3.8 36.0574 3.8H36.8734C36.98 3.8 37.0654 3.83733 37.1294 3.912C37.1934 3.976 37.2254 4.06133 37.2254 4.168V14.632C37.2254 14.7387 37.1934 14.8293 37.1294 14.904C37.0654 14.968 36.98 15 36.8734 15H36.0254ZM43.2211 15.16C42.5491 15.16 41.9625 15.08 41.4611 14.92C40.9598 14.7493 40.5385 14.5253 40.1971 14.248C39.8558 13.9707 39.5945 13.6667 39.4131 13.336C39.2425 13.0053 39.1518 12.664 39.1411 12.312C39.1411 12.216 39.1731 12.1413 39.2371 12.088C39.3011 12.0347 39.3811 12.008 39.4771 12.008H40.2611C40.3571 12.008 40.4425 12.0293 40.5171 12.072C40.5918 12.1147 40.6558 12.2053 40.7091 12.344C40.8158 12.728 40.9971 13.0267 41.2531 13.24C41.5198 13.4533 41.8238 13.6027 42.1651 13.688C42.5171 13.7627 42.8691 13.8 43.2211 13.8C43.9571 13.8 44.5545 13.624 45.0131 13.272C45.4718 12.92 45.7011 12.4027 45.7011 11.72C45.7011 11.0267 45.4931 10.5307 45.0771 10.232C44.6611 9.93333 44.0851 9.784 43.3491 9.784H41.8291C41.7225 9.784 41.6318 9.752 41.5571 9.688C41.4931 9.624 41.4611 9.53333 41.4611 9.416V8.984C41.4611 8.888 41.4771 8.808 41.5091 8.744C41.5518 8.66933 41.5945 8.60533 41.6371 8.552L44.7411 5.16H40.0211C39.9145 5.16 39.8238 5.128 39.7491 5.064C39.6851 5 39.6531 4.90933 39.6531 4.792V4.184C39.6531 4.06667 39.6851 3.976 39.7491 3.912C39.8238 3.83733 39.9145 3.8 40.0211 3.8H46.4051C46.5225 3.8 46.6131 3.83733 46.6771 3.912C46.7518 3.976 46.7891 4.06667 46.7891 4.184V4.76C46.7891 4.83467 46.7678 4.904 46.7251 4.968C46.6931 5.02133 46.6558 5.07467 46.6131 5.128L43.5251 8.568L43.7811 8.584C44.4851 8.60533 45.0985 8.73333 45.6211 8.968C46.1545 9.20267 46.5651 9.55467 46.8531 10.024C47.1518 10.4827 47.3011 11.064 47.3011 11.768C47.3011 12.4827 47.1251 13.096 46.7731 13.608C46.4211 14.1093 45.9358 14.4933 45.3171 14.76C44.6985 15.0267 43.9998 15.16 43.2211 15.16ZM50.4465 15C50.3505 15 50.2705 14.968 50.2065 14.904C50.1532 14.8293 50.1265 14.744 50.1265 14.648C50.1265 14.616 50.1372 14.568 50.1585 14.504L54.1425 5.192H48.8945C48.7878 5.192 48.6972 5.16 48.6225 5.096C48.5585 5.02133 48.5265 4.93067 48.5265 4.824V4.184C48.5265 4.06667 48.5585 3.976 48.6225 3.912C48.6972 3.83733 48.7878 3.8 48.8945 3.8H55.4545C55.5718 3.8 55.6625 3.83733 55.7265 3.912C55.8012 3.976 55.8385 4.06667 55.8385 4.184V4.776C55.8385 4.91467 55.8278 5.02667 55.8065 5.112C55.7852 5.19733 55.7532 5.29333 55.7105 5.4L51.7585 14.6C51.7265 14.6853 51.6732 14.776 51.5985 14.872C51.5345 14.9573 51.4385 15 51.3105 15H50.4465ZM56.6588 15C56.5521 15 56.4614 14.968 56.3868 14.904C56.3228 14.8293 56.2908 14.7387 56.2908 14.632V13.48C56.2908 13.3733 56.3228 13.288 56.3868 13.224C56.4614 13.1493 56.5521 13.112 56.6588 13.112H57.8108C57.9174 13.112 58.0028 13.1493 58.0668 13.224C58.1414 13.288 58.1788 13.3733 58.1788 13.48V14.632C58.1788 14.7387 58.1414 14.8293 58.0668 14.904C58.0028 14.968 57.9174 15 57.8108 15H56.6588ZM60.402 15C60.2953 15 60.2047 14.968 60.13 14.904C60.066 14.8293 60.034 14.7387 60.034 14.632V14.12C60.034 14.024 60.0607 13.9173 60.114 13.8C60.1673 13.6827 60.274 13.5547 60.434 13.416L63.826 10.024C64.37 9.56533 64.7967 9.176 65.106 8.856C65.426 8.52533 65.65 8.21067 65.778 7.912C65.9167 7.61333 65.986 7.304 65.986 6.984C65.986 6.376 65.8153 5.896 65.474 5.544C65.1327 5.18133 64.626 5 63.954 5C63.5273 5 63.1593 5.09067 62.85 5.272C62.5407 5.44267 62.2953 5.68267 62.114 5.992C61.9433 6.29067 61.8313 6.632 61.778 7.016C61.7567 7.15467 61.698 7.25067 61.602 7.304C61.5167 7.35733 61.4367 7.384 61.362 7.384H60.53C60.434 7.384 60.354 7.35733 60.29 7.304C60.226 7.24 60.194 7.16533 60.194 7.08C60.2047 6.67467 60.29 6.26933 60.45 5.864C60.61 5.448 60.8447 5.07467 61.154 4.744C61.474 4.41333 61.8633 4.14667 62.322 3.944C62.7913 3.73067 63.3353 3.624 63.954 3.624C64.7967 3.624 65.4847 3.77867 66.018 4.088C66.562 4.38667 66.962 4.78667 67.218 5.288C67.474 5.78933 67.602 6.33867 67.602 6.936C67.602 7.40533 67.522 7.83733 67.362 8.232C67.202 8.616 66.9673 8.99467 66.658 9.368C66.3593 9.73067 65.986 10.104 65.538 10.488L62.466 13.608H67.458C67.5753 13.608 67.666 13.64 67.73 13.704C67.8047 13.768 67.842 13.8587 67.842 13.976V14.632C67.842 14.7387 67.8047 14.8293 67.73 14.904C67.666 14.968 67.5753 15 67.458 15H60.402Z" fill="#555555"/>
<path d="M95.632 15C95.5253 15 95.4347 14.9627 95.36 14.888C95.2853 14.8133 95.248 14.7227 95.248 14.616V4.2C95.248 4.08267 95.2853 3.98667 95.36 3.912C95.4347 3.83733 95.5253 3.8 95.632 3.8H99.92C100.752 3.8 101.477 3.93333 102.096 4.2C102.715 4.456 103.195 4.85067 103.536 5.384C103.877 5.90667 104.048 6.56267 104.048 7.352C104.048 8.152 103.877 8.81333 103.536 9.336C103.195 9.848 102.715 10.232 102.096 10.488C101.477 10.744 100.752 10.872 99.92 10.872H97.536V14.616C97.536 14.7227 97.4987 14.8133 97.424 14.888C97.36 14.9627 97.2693 15 97.152 15H95.632ZM97.504 9.096H99.84C100.459 9.096 100.933 8.952 101.264 8.664C101.595 8.36533 101.76 7.928 101.76 7.352C101.76 6.81867 101.605 6.392 101.296 6.072C100.987 5.74133 100.501 5.576 99.84 5.576H97.504V9.096Z" fill="#2959CE"/>
<path d="M112.885 15C112.778 15 112.687 14.968 112.613 14.904C112.549 14.8293 112.517 14.7387 112.517 14.632V5.672L109.861 7.72C109.775 7.784 109.685 7.81067 109.589 7.8C109.493 7.78933 109.413 7.74133 109.349 7.656L108.933 7.128C108.869 7.032 108.842 6.936 108.853 6.84C108.874 6.744 108.927 6.664 109.013 6.6L112.501 3.912C112.575 3.85867 112.645 3.82667 112.709 3.816C112.773 3.80533 112.842 3.8 112.917 3.8H113.733C113.839 3.8 113.925 3.83733 113.989 3.912C114.053 3.976 114.085 4.06133 114.085 4.168V14.632C114.085 14.7387 114.053 14.8293 113.989 14.904C113.925 14.968 113.839 15 113.733 15H112.885ZM120.081 15.16C119.409 15.16 118.822 15.08 118.321 14.92C117.819 14.7493 117.398 14.5253 117.057 14.248C116.715 13.9707 116.454 13.6667 116.273 13.336C116.102 13.0053 116.011 12.664 116.001 12.312C116.001 12.216 116.033 12.1413 116.097 12.088C116.161 12.0347 116.241 12.008 116.337 12.008H117.121C117.217 12.008 117.302 12.0293 117.377 12.072C117.451 12.1147 117.515 12.2053 117.569 12.344C117.675 12.728 117.857 13.0267 118.113 13.24C118.379 13.4533 118.683 13.6027 119.025 13.688C119.377 13.7627 119.729 13.8 120.081 13.8C120.817 13.8 121.414 13.624 121.873 13.272C122.331 12.92 122.561 12.4027 122.561 11.72C122.561 11.0267 122.353 10.5307 121.937 10.232C121.521 9.93333 120.945 9.784 120.209 9.784H118.689C118.582 9.784 118.491 9.752 118.417 9.688C118.353 9.624 118.321 9.53333 118.321 9.416V8.984C118.321 8.888 118.337 8.808 118.369 8.744C118.411 8.66933 118.454 8.60533 118.497 8.552L121.601 5.16H116.881C116.774 5.16 116.683 5.128 116.609 5.064C116.545 5 116.513 4.90933 116.513 4.792V4.184C116.513 4.06667 116.545 3.976 116.609 3.912C116.683 3.83733 116.774 3.8 116.881 3.8H123.265C123.382 3.8 123.473 3.83733 123.536 3.912C123.611 3.976 123.649 4.06667 123.649 4.184V4.76C123.649 4.83467 123.627 4.904 123.585 4.968C123.553 5.02133 123.515 5.07467 123.473 5.128L120.385 8.568L120.641 8.584C121.345 8.60533 121.958 8.73333 122.481 8.968C123.014 9.20267 123.425 9.55467 123.713 10.024C124.011 10.4827 124.161 11.064 124.161 11.768C124.161 12.4827 123.985 13.096 123.633 13.608C123.281 14.1093 122.795 14.4933 122.177 14.76C121.558 15.0267 120.859 15.16 120.081 15.16ZM130.01 15.16C129.391 15.16 128.821 15.0853 128.298 14.936C127.786 14.776 127.343 14.552 126.97 14.264C126.607 13.9653 126.325 13.608 126.122 13.192C125.919 12.776 125.818 12.3067 125.818 11.784C125.818 11.1333 125.973 10.5733 126.282 10.104C126.602 9.63467 127.023 9.27733 127.546 9.032C127.13 8.78667 126.805 8.46667 126.57 8.072C126.335 7.67733 126.218 7.208 126.218 6.664C126.218 6.024 126.373 5.48533 126.682 5.048C127.002 4.6 127.445 4.25333 128.01 4.008C128.586 3.76267 129.253 3.64 130.01 3.64C130.757 3.64 131.413 3.76267 131.978 4.008C132.554 4.24267 132.997 4.584 133.306 5.032C133.626 5.48 133.786 6.01867 133.786 6.648C133.786 7.192 133.669 7.66667 133.434 8.072C133.199 8.46667 132.879 8.78667 132.474 9.032C132.997 9.27733 133.413 9.63467 133.722 10.104C134.042 10.5733 134.202 11.1333 134.202 11.784C134.202 12.4773 134.026 13.08 133.674 13.592C133.322 14.0933 132.831 14.4827 132.202 14.76C131.573 15.0267 130.842 15.16 130.01 15.16ZM130.01 13.88C130.501 13.88 130.943 13.7947 131.338 13.624C131.733 13.4533 132.047 13.2133 132.282 12.904C132.517 12.584 132.634 12.2107 132.634 11.784C132.634 11.3467 132.517 10.9787 132.282 10.68C132.047 10.3707 131.733 10.136 131.338 9.976C130.943 9.80533 130.501 9.72 130.01 9.72C129.519 9.72 129.071 9.80533 128.666 9.976C128.271 10.136 127.957 10.3707 127.722 10.68C127.487 10.9787 127.37 11.3467 127.37 11.784C127.37 12.2107 127.487 12.584 127.722 12.904C127.957 13.2133 128.271 13.4533 128.666 13.624C129.071 13.7947 129.519 13.88 130.01 13.88ZM130.01 8.456C130.415 8.456 130.789 8.38133 131.13 8.232C131.482 8.08267 131.759 7.88 131.962 7.624C132.175 7.368 132.282 7.05867 132.282 6.696C132.282 6.33333 132.181 6.01867 131.978 5.752C131.786 5.48533 131.514 5.28267 131.162 5.144C130.821 4.99467 130.437 4.92 130.01 4.92C129.583 4.92 129.194 4.99467 128.842 5.144C128.501 5.28267 128.229 5.48533 128.026 5.752C127.823 6.01867 127.722 6.33333 127.722 6.696C127.722 7.06933 127.823 7.38933 128.026 7.656C128.229 7.912 128.501 8.10933 128.842 8.248C129.194 8.38667 129.583 8.456 130.01 8.456ZM136.378 15C136.271 15 136.18 14.968 136.106 14.904C136.042 14.8293 136.01 14.7387 136.01 14.632V13.48C136.01 13.3733 136.042 13.288 136.106 13.224C136.18 13.1493 136.271 13.112 136.378 13.112H137.53C137.636 13.112 137.722 13.1493 137.786 13.224C137.86 13.288 137.898 13.3733 137.898 13.48V14.632C137.898 14.7387 137.86 14.8293 137.786 14.904C137.722 14.968 137.636 15 137.53 15H136.378ZM140.121 15C140.014 15 139.923 14.968 139.849 14.904C139.785 14.8293 139.753 14.7387 139.753 14.632V14.12C139.753 14.024 139.779 13.9173 139.833 13.8C139.886 13.6827 139.993 13.5547 140.153 13.416L143.545 10.024C144.089 9.56533 144.515 9.176 144.825 8.856C145.145 8.52533 145.369 8.21067 145.497 7.912C145.635 7.61333 145.705 7.304 145.705 6.984C145.705 6.376 145.534 5.896 145.193 5.544C144.851 5.18133 144.345 5 143.673 5C143.246 5 142.878 5.09067 142.569 5.272C142.259 5.44267 142.014 5.68267 141.833 5.992C141.662 6.29067 141.55 6.632 141.497 7.016C141.475 7.15467 141.417 7.25067 141.321 7.304C141.235 7.35733 141.155 7.384 141.081 7.384H140.249C140.153 7.384 140.073 7.35733 140.009 7.304C139.945 7.24 139.913 7.16533 139.913 7.08C139.923 6.67467 140.009 6.26933 140.169 5.864C140.329 5.448 140.563 5.07467 140.873 4.744C141.193 4.41333 141.582 4.14667 142.041 3.944C142.51 3.73067 143.054 3.624 143.673 3.624C144.515 3.624 145.203 3.77867 145.737 4.088C146.281 4.38667 146.681 4.78667 146.937 5.288C147.193 5.78933 147.321 6.33867 147.321 6.936C147.321 7.40533 147.241 7.83733 147.081 8.232C146.921 8.616 146.686 8.99467 146.377 9.368C146.078 9.73067 145.705 10.104 145.257 10.488L142.185 13.608H147.177C147.294 13.608 147.385 13.64 147.449 13.704C147.523 13.768 147.561 13.8587 147.561 13.976V14.632C147.561 14.7387 147.523 14.8293 147.449 14.904C147.385 14.968 147.294 15 147.177 15H140.121ZM153.287 15.16C152.402 15.16 151.65 14.984 151.031 14.632C150.413 14.2693 149.938 13.8 149.607 13.224C149.287 12.6373 149.127 12.0027 149.127 11.32C149.127 11 149.165 10.696 149.239 10.408C149.325 10.1093 149.426 9.832 149.543 9.576C149.671 9.30933 149.794 9.07467 149.911 8.872C150.039 8.65867 150.151 8.488 150.247 8.36L153.287 4.12C153.341 4.06667 153.405 4.00267 153.479 3.928C153.554 3.84267 153.666 3.8 153.815 3.8H154.663C154.759 3.8 154.834 3.83733 154.887 3.912C154.951 3.976 154.983 4.056 154.983 4.152C154.983 4.19467 154.978 4.23733 154.967 4.28C154.957 4.312 154.941 4.33867 154.919 4.36L152.583 7.624C152.711 7.58133 152.855 7.55467 153.015 7.544C153.186 7.52267 153.346 7.512 153.495 7.512C154.082 7.52267 154.615 7.62933 155.095 7.832C155.575 8.03467 155.986 8.312 156.327 8.664C156.679 9.00533 156.946 9.40533 157.127 9.864C157.309 10.312 157.399 10.792 157.399 11.304C157.399 11.976 157.239 12.6053 156.919 13.192C156.599 13.7787 156.13 14.2533 155.511 14.616C154.903 14.9787 154.162 15.16 153.287 15.16ZM153.271 13.8C153.719 13.8 154.135 13.704 154.519 13.512C154.903 13.32 155.213 13.0427 155.447 12.68C155.693 12.3067 155.815 11.8533 155.815 11.32C155.815 10.776 155.698 10.3227 155.463 9.96C155.229 9.58667 154.914 9.30933 154.519 9.128C154.135 8.936 153.719 8.84 153.271 8.84C152.823 8.84 152.407 8.936 152.023 9.128C151.639 9.30933 151.325 9.58667 151.079 9.96C150.845 10.3227 150.727 10.776 150.727 11.32C150.727 11.8533 150.845 12.3067 151.079 12.68C151.325 13.0427 151.639 13.32 152.023 13.512C152.407 13.704 152.823 13.8 153.271 13.8Z" fill="#555555"/>
</svg>
